<?xml version="1.0" encoding="utf-8"?>
<!-- Generator: Adobe Illustrator 27.8.1, SVG Export Plug-In . SVG Version: 6.00 Build 0)  -->
<svg version="1.1" id="Layer_1" xmlns="http://www.w3.org/2000/svg" xmlns:xlink="http://www.w3.org/1999/xlink" x="0px" y="0px"
	 viewBox="0 0 64 64" style="enable-background:new 0 0 64 64;" xml:space="preserve">
<g>
	<g>
		<path d="M18.71,24.2h2.17v15.23h7.45v1.84h-9.62V24.2z"/>
		<path d="M29.32,28.62h2.2l2.39,7.18c0.38,1.23,0.79,2.52,1.17,3.73h0.1c0.38-1.21,0.79-2.49,1.17-3.73l2.39-7.18h2.09l-4.47,12.64
			h-2.49L29.32,28.62z"/>
		<path d="M42.84,39.95c0-0.98,0.7-1.65,1.55-1.65c0.85,0,1.55,0.67,1.55,1.65c0,0.95-0.7,1.62-1.55,1.62
			C43.54,41.57,42.84,40.9,42.84,39.95z"/>
	</g>
</g>
</svg>
